<svg width="100" height="100" viewBox="0 0 100 100" fill="none" xmlns="http://www.w3.org/2000/svg">
<rect width="100" height="100" rx="25" fill="white"/>
<path d="M83.0299 28.5903L82.9748 28.5352L72.315 17.8754L72.2601 17.8205C72.2601 17.8205 61.9848 17.8754 51.7097 33.6455L59.8805 40.97L67.2049 49.1407C82.9748 38.8654 83.0299 28.5903 83.0299 28.5903Z" fill="#F9E3AE"/>
<path d="M38.2768 79.5531C44.324 69.003 65.8425 47.3558 65.8425 47.3558L60.0914 40.7583L53.8127 35.3259L52.8478 34.361C52.8478 34.361 31.2005 55.8796 20.6503 61.9266C19.0265 62.8573 16.7904 67.0731 18.2057 69.003L19.1707 69.9679L30.2355 81.0327L31.2005 81.9978C33.1304 83.413 37.3461 81.177 38.2768 79.5531Z" fill="#F9E3AE"/>
<path d="M31.3142 82.1121L31.2006 81.9985C33.1305 83.4137 37.3461 81.1778 38.2769 79.5538C44.056 69.4715 63.9642 49.2549 65.7181 47.4821L67.205 49.1407C82.975 38.8655 83.0299 28.5902 83.0299 28.5902L82.975 28.5353L81.6924 27.2527C80.7466 30.8582 76.3625 39.5061 65.1293 46.8251L52.6867 34.5213C52.6297 34.579 51.0444 36.1309 51.0444 36.1309C53.2504 39.4742 61.406 47.1019 61.406 47.1019C61.406 47.1019 42.1989 67.4081 37.3267 75.9084C36.3959 77.5323 30.8966 81.1797 28.9666 79.7644L18.0922 68.89L16.3414 70.7718L16.6558 71.0955L29.4267 83.8664C30.6447 82.731 31.3142 82.1121 31.3142 82.1121Z" fill="#E3C174"/>
<path d="M60.5351 42.843L58.4064 40.7142L58.2569 40.5648L56.1282 38.436L49.3682 43.5527C48.1869 44.734 48.5307 47.0059 50.1178 48.7038C50.1178 48.7038 50.1659 48.7554 50.1911 48.7799C50.2157 48.8052 50.2673 48.8533 50.2673 48.8533C51.9653 50.4404 54.2371 50.7842 55.4185 49.6028L60.5351 42.843Z" fill="#AF832C"/>
<path d="M57.9436 45.5954L53.3755 41.0273L56.3282 38.0747L60.8962 42.6427L57.9436 45.5954Z" fill="#603813"/>
</svg>
